# xmcd
#
# Track frame offsets:
#	150
#	16390
#	31940
#	52665
#	66887
#	85730
#	109842
#	128697
#	147075
#	161300
#	188927
#	200070
#	242507
#	256252
#	273815
#
# Disc length: 3887 seconds
#
# Revision: 1
# Processed by: cddbd v1.5.2PL0 Copyright (c) Steve Scherf et al.
# Submitted via: audiograbber 1.83.01
#
DISCID=bf0f2d0f
DTITLE=Rythm of the Road - Wanted
DYEAR=1996
DGENRE=Country
TTITLE0=Doin' Time
TTITLE1=Love At Second Sight
TTITLE2=Humpty Dance
TTITLE3=It's Been Real
TTITLE4=Silver Wings
TTITLE5=Rose Without A Thorn
TTITLE6=Macarena
TTITLE7=Strange Being Strangers Again
TTITLE8=Have I Told You
TTITLE9=I Can't Tell You Why
TTITLE10=The Man I'll Never Be
TTITLE11=Disco AAAHHH!!!
TTITLE12=Can't Leave A Little
TTITLE13=You Shook Me All Night Long
TTITLE14=Wonderful Tonight
EXTD=
EXTT0=
EXTT1=
EXTT2=
EXTT3=
EXTT4=
EXTT5=
EXTT6=
EXTT7=
EXTT8=
EXTT9=
EXTT10=
EXTT11=
EXTT12=
EXTT13=
EXTT14=
PLAYORDER=
